<mxfile host="app.diagrams.net" modified="2023-11-15T16:17:12.388Z" agent="Mozilla/5.0 (Windows NT 10.0; Win64; x64) AppleWebKit/537.36 (KHTML, like Gecko) Chrome/116.0.5845.837 YaBrowser/23.9.4.837 Yowser/2.5 Safari/537.36" etag="Mv2SWpvZ_CacoOx9wsQ4" version="22.1.1" type="device">
  <diagram name="Страница — 1" id="n8tWTawNqiRM7endBezZ">
    <mxGraphModel dx="1242" dy="575" grid="1" gridSize="10" guides="1" tooltips="1" connect="1" arrows="1" fold="1" page="1" pageScale="1" pageWidth="827" pageHeight="1169" math="0" shadow="0">
      <root>
        <mxCell id="0" />
        <mxCell id="1" parent="0" />
        <mxCell id="VvfuFxxKgRvNf8s8c5tq-1" value="клиент" style="shape=umlActor;verticalLabelPosition=bottom;verticalAlign=top;html=1;" vertex="1" parent="1">
          <mxGeometry x="40" y="80" width="30" height="60" as="geometry" />
        </mxCell>
        <mxCell id="VvfuFxxKgRvNf8s8c5tq-2" value="банк" style="shape=umlActor;verticalLabelPosition=bottom;verticalAlign=top;html=1;" vertex="1" parent="1">
          <mxGeometry x="770" y="80" width="30" height="60" as="geometry" />
        </mxCell>
        <mxCell id="VvfuFxxKgRvNf8s8c5tq-3" value="кассир" style="shape=umlActor;verticalLabelPosition=bottom;verticalAlign=top;html=1;" vertex="1" parent="1">
          <mxGeometry x="40" y="370" width="30" height="60" as="geometry" />
        </mxCell>
        <mxCell id="VvfuFxxKgRvNf8s8c5tq-4" value="менеджер" style="shape=umlActor;verticalLabelPosition=bottom;verticalAlign=top;html=1;" vertex="1" parent="1">
          <mxGeometry x="770" y="370" width="30" height="60" as="geometry" />
        </mxCell>
        <mxCell id="VvfuFxxKgRvNf8s8c5tq-5" value="банковская система" style="swimlane;whiteSpace=wrap;html=1;" vertex="1" parent="1">
          <mxGeometry x="90" y="10" width="660" height="530" as="geometry" />
        </mxCell>
        <mxCell id="VvfuFxxKgRvNf8s8c5tq-9" value="создание учетной записи" style="ellipse;whiteSpace=wrap;html=1;" vertex="1" parent="VvfuFxxKgRvNf8s8c5tq-5">
          <mxGeometry x="270" y="30" width="120" height="40" as="geometry" />
        </mxCell>
        <mxCell id="VvfuFxxKgRvNf8s8c5tq-12" value="проверка балланса" style="ellipse;whiteSpace=wrap;html=1;" vertex="1" parent="VvfuFxxKgRvNf8s8c5tq-5">
          <mxGeometry x="270" y="80" width="120" height="30" as="geometry" />
        </mxCell>
        <mxCell id="VvfuFxxKgRvNf8s8c5tq-14" value="перевод средств" style="ellipse;whiteSpace=wrap;html=1;" vertex="1" parent="VvfuFxxKgRvNf8s8c5tq-5">
          <mxGeometry x="270" y="120" width="120" height="30" as="geometry" />
        </mxCell>
        <mxCell id="VvfuFxxKgRvNf8s8c5tq-18" value="выполнение операции" style="ellipse;whiteSpace=wrap;html=1;" vertex="1" parent="VvfuFxxKgRvNf8s8c5tq-5">
          <mxGeometry x="270" y="160" width="120" height="40" as="geometry" />
        </mxCell>
        <mxCell id="VvfuFxxKgRvNf8s8c5tq-20" value="кредитные&lt;br&gt;наличные" style="ellipse;whiteSpace=wrap;html=1;" vertex="1" parent="VvfuFxxKgRvNf8s8c5tq-5">
          <mxGeometry x="150" y="210" width="120" height="40" as="geometry" />
        </mxCell>
        <mxCell id="VvfuFxxKgRvNf8s8c5tq-21" value="дебетовые наличные" style="ellipse;whiteSpace=wrap;html=1;" vertex="1" parent="VvfuFxxKgRvNf8s8c5tq-5">
          <mxGeometry x="390" y="210" width="120" height="40" as="geometry" />
        </mxCell>
        <mxCell id="VvfuFxxKgRvNf8s8c5tq-22" value="запрос" style="endArrow=open;endSize=12;dashed=1;html=1;rounded=0;exitX=0;exitY=1;exitDx=0;exitDy=0;entryX=0.5;entryY=0;entryDx=0;entryDy=0;" edge="1" parent="VvfuFxxKgRvNf8s8c5tq-5" source="VvfuFxxKgRvNf8s8c5tq-18" target="VvfuFxxKgRvNf8s8c5tq-20">
          <mxGeometry width="160" relative="1" as="geometry">
            <mxPoint x="240" y="220" as="sourcePoint" />
            <mxPoint x="400" y="220" as="targetPoint" />
          </mxGeometry>
        </mxCell>
        <mxCell id="VvfuFxxKgRvNf8s8c5tq-23" value="запрос" style="endArrow=open;endSize=12;dashed=1;html=1;rounded=0;exitX=1;exitY=1;exitDx=0;exitDy=0;entryX=0.5;entryY=0;entryDx=0;entryDy=0;" edge="1" parent="VvfuFxxKgRvNf8s8c5tq-5" source="VvfuFxxKgRvNf8s8c5tq-18" target="VvfuFxxKgRvNf8s8c5tq-21">
          <mxGeometry width="160" relative="1" as="geometry">
            <mxPoint x="240" y="220" as="sourcePoint" />
            <mxPoint x="400" y="220" as="targetPoint" />
          </mxGeometry>
        </mxCell>
        <mxCell id="VvfuFxxKgRvNf8s8c5tq-24" value="проверка размеров процентов" style="ellipse;whiteSpace=wrap;html=1;" vertex="1" parent="VvfuFxxKgRvNf8s8c5tq-5">
          <mxGeometry x="510" y="260" width="120" height="40" as="geometry" />
        </mxCell>
        <mxCell id="VvfuFxxKgRvNf8s8c5tq-25" value="предоставление" style="endArrow=open;endSize=12;dashed=1;html=1;rounded=0;entryX=1;entryY=1;entryDx=0;entryDy=0;exitX=0.5;exitY=0;exitDx=0;exitDy=0;" edge="1" parent="VvfuFxxKgRvNf8s8c5tq-5" source="VvfuFxxKgRvNf8s8c5tq-24" target="VvfuFxxKgRvNf8s8c5tq-21">
          <mxGeometry width="160" relative="1" as="geometry">
            <mxPoint x="380" y="310" as="sourcePoint" />
            <mxPoint x="540" y="310" as="targetPoint" />
          </mxGeometry>
        </mxCell>
        <mxCell id="VvfuFxxKgRvNf8s8c5tq-26" value="обновление баланса&amp;nbsp;" style="ellipse;whiteSpace=wrap;html=1;" vertex="1" parent="VvfuFxxKgRvNf8s8c5tq-5">
          <mxGeometry x="30" y="260" width="120" height="40" as="geometry" />
        </mxCell>
        <mxCell id="VvfuFxxKgRvNf8s8c5tq-28" value="предоставление" style="endArrow=open;endSize=12;dashed=1;html=1;rounded=0;exitX=0.5;exitY=0;exitDx=0;exitDy=0;entryX=0;entryY=1;entryDx=0;entryDy=0;" edge="1" parent="VvfuFxxKgRvNf8s8c5tq-5" source="VvfuFxxKgRvNf8s8c5tq-26" target="VvfuFxxKgRvNf8s8c5tq-20">
          <mxGeometry width="160" relative="1" as="geometry">
            <mxPoint x="240" y="220" as="sourcePoint" />
            <mxPoint x="400" y="220" as="targetPoint" />
          </mxGeometry>
        </mxCell>
        <mxCell id="VvfuFxxKgRvNf8s8c5tq-32" value="кредит" style="ellipse;whiteSpace=wrap;html=1;" vertex="1" parent="VvfuFxxKgRvNf8s8c5tq-5">
          <mxGeometry x="270" y="310" width="120" height="30" as="geometry" />
        </mxCell>
        <mxCell id="VvfuFxxKgRvNf8s8c5tq-34" value="запрос кредита" style="ellipse;whiteSpace=wrap;html=1;" vertex="1" parent="VvfuFxxKgRvNf8s8c5tq-5">
          <mxGeometry x="150" y="350" width="120" height="30" as="geometry" />
        </mxCell>
        <mxCell id="VvfuFxxKgRvNf8s8c5tq-35" value="одобрение займа" style="ellipse;whiteSpace=wrap;html=1;" vertex="1" parent="VvfuFxxKgRvNf8s8c5tq-5">
          <mxGeometry x="384" y="350" width="120" height="30" as="geometry" />
        </mxCell>
        <mxCell id="VvfuFxxKgRvNf8s8c5tq-38" value="предоставление" style="endArrow=open;endSize=12;dashed=1;html=1;rounded=0;exitX=0.537;exitY=0.047;exitDx=0;exitDy=0;exitPerimeter=0;entryX=1;entryY=1;entryDx=0;entryDy=0;" edge="1" parent="VvfuFxxKgRvNf8s8c5tq-5" source="VvfuFxxKgRvNf8s8c5tq-35" target="VvfuFxxKgRvNf8s8c5tq-32">
          <mxGeometry width="160" relative="1" as="geometry">
            <mxPoint x="250" y="340" as="sourcePoint" />
            <mxPoint x="410" y="340" as="targetPoint" />
          </mxGeometry>
        </mxCell>
        <mxCell id="VvfuFxxKgRvNf8s8c5tq-40" value="" style="endArrow=open;endSize=12;dashed=1;html=1;rounded=0;exitX=0.5;exitY=0;exitDx=0;exitDy=0;entryX=0.112;entryY=0.847;entryDx=0;entryDy=0;entryPerimeter=0;" edge="1" parent="VvfuFxxKgRvNf8s8c5tq-5" source="VvfuFxxKgRvNf8s8c5tq-34" target="VvfuFxxKgRvNf8s8c5tq-32">
          <mxGeometry width="160" relative="1" as="geometry">
            <mxPoint x="310" y="440" as="sourcePoint" />
            <mxPoint x="340" y="390" as="targetPoint" />
          </mxGeometry>
        </mxCell>
        <mxCell id="VvfuFxxKgRvNf8s8c5tq-42" value="запрос" style="edgeLabel;html=1;align=center;verticalAlign=middle;resizable=0;points=[];" vertex="1" connectable="0" parent="VvfuFxxKgRvNf8s8c5tq-40">
          <mxGeometry x="0.1454" y="1" relative="1" as="geometry">
            <mxPoint as="offset" />
          </mxGeometry>
        </mxCell>
        <mxCell id="VvfuFxxKgRvNf8s8c5tq-43" value="срок кредита" style="ellipse;whiteSpace=wrap;html=1;" vertex="1" parent="VvfuFxxKgRvNf8s8c5tq-5">
          <mxGeometry x="30" y="390" width="120" height="30" as="geometry" />
        </mxCell>
        <mxCell id="VvfuFxxKgRvNf8s8c5tq-44" value="тип кредита" style="ellipse;whiteSpace=wrap;html=1;" vertex="1" parent="VvfuFxxKgRvNf8s8c5tq-5">
          <mxGeometry x="270" y="390" width="120" height="30" as="geometry" />
        </mxCell>
        <mxCell id="VvfuFxxKgRvNf8s8c5tq-45" value="запрос" style="endArrow=open;endSize=12;dashed=1;html=1;rounded=0;exitX=0;exitY=1;exitDx=0;exitDy=0;entryX=0.5;entryY=0;entryDx=0;entryDy=0;" edge="1" parent="VvfuFxxKgRvNf8s8c5tq-5" source="VvfuFxxKgRvNf8s8c5tq-34" target="VvfuFxxKgRvNf8s8c5tq-43">
          <mxGeometry width="160" relative="1" as="geometry">
            <mxPoint x="270" y="430" as="sourcePoint" />
            <mxPoint x="430" y="430" as="targetPoint" />
          </mxGeometry>
        </mxCell>
        <mxCell id="VvfuFxxKgRvNf8s8c5tq-47" value="запрос" style="endArrow=open;endSize=12;dashed=1;html=1;rounded=0;exitX=1;exitY=1;exitDx=0;exitDy=0;entryX=0.5;entryY=0;entryDx=0;entryDy=0;" edge="1" parent="VvfuFxxKgRvNf8s8c5tq-5" source="VvfuFxxKgRvNf8s8c5tq-34" target="VvfuFxxKgRvNf8s8c5tq-44">
          <mxGeometry width="160" relative="1" as="geometry">
            <mxPoint x="270" y="430" as="sourcePoint" />
            <mxPoint x="430" y="430" as="targetPoint" />
          </mxGeometry>
        </mxCell>
        <mxCell id="VvfuFxxKgRvNf8s8c5tq-48" value="управление сотрудниками" style="ellipse;whiteSpace=wrap;html=1;" vertex="1" parent="VvfuFxxKgRvNf8s8c5tq-5">
          <mxGeometry x="270" y="430" width="120" height="40" as="geometry" />
        </mxCell>
        <mxCell id="VvfuFxxKgRvNf8s8c5tq-49" value="предоставление бонусов" style="ellipse;whiteSpace=wrap;html=1;" vertex="1" parent="VvfuFxxKgRvNf8s8c5tq-5">
          <mxGeometry x="390" y="480" width="120" height="40" as="geometry" />
        </mxCell>
        <mxCell id="VvfuFxxKgRvNf8s8c5tq-50" value="предоставление" style="endArrow=open;endSize=12;dashed=1;html=1;rounded=0;exitX=0.5;exitY=0;exitDx=0;exitDy=0;entryX=1;entryY=1;entryDx=0;entryDy=0;" edge="1" parent="VvfuFxxKgRvNf8s8c5tq-5" source="VvfuFxxKgRvNf8s8c5tq-49" target="VvfuFxxKgRvNf8s8c5tq-48">
          <mxGeometry width="160" relative="1" as="geometry">
            <mxPoint x="300" y="440" as="sourcePoint" />
            <mxPoint x="460" y="440" as="targetPoint" />
          </mxGeometry>
        </mxCell>
        <mxCell id="VvfuFxxKgRvNf8s8c5tq-51" value="выплата заработной платы" style="ellipse;whiteSpace=wrap;html=1;" vertex="1" parent="VvfuFxxKgRvNf8s8c5tq-5">
          <mxGeometry x="150" y="480" width="120" height="40" as="geometry" />
        </mxCell>
        <mxCell id="VvfuFxxKgRvNf8s8c5tq-52" value="запрос" style="endArrow=open;endSize=12;dashed=1;html=1;rounded=0;exitX=0;exitY=1;exitDx=0;exitDy=0;entryX=0.5;entryY=0;entryDx=0;entryDy=0;" edge="1" parent="VvfuFxxKgRvNf8s8c5tq-5" source="VvfuFxxKgRvNf8s8c5tq-48" target="VvfuFxxKgRvNf8s8c5tq-51">
          <mxGeometry width="160" relative="1" as="geometry">
            <mxPoint x="340" y="370" as="sourcePoint" />
            <mxPoint x="500" y="370" as="targetPoint" />
          </mxGeometry>
        </mxCell>
        <mxCell id="VvfuFxxKgRvNf8s8c5tq-10" value="" style="endArrow=none;html=1;rounded=0;exitX=0.5;exitY=0.5;exitDx=0;exitDy=0;exitPerimeter=0;entryX=0;entryY=0.5;entryDx=0;entryDy=0;" edge="1" parent="1" source="VvfuFxxKgRvNf8s8c5tq-1" target="VvfuFxxKgRvNf8s8c5tq-9">
          <mxGeometry width="50" height="50" relative="1" as="geometry">
            <mxPoint x="150" y="110" as="sourcePoint" />
            <mxPoint x="200" y="60" as="targetPoint" />
          </mxGeometry>
        </mxCell>
        <mxCell id="VvfuFxxKgRvNf8s8c5tq-11" value="" style="endArrow=none;html=1;rounded=0;entryX=0.5;entryY=0.5;entryDx=0;entryDy=0;entryPerimeter=0;exitX=1;exitY=0.5;exitDx=0;exitDy=0;" edge="1" parent="1" source="VvfuFxxKgRvNf8s8c5tq-9" target="VvfuFxxKgRvNf8s8c5tq-2">
          <mxGeometry width="50" height="50" relative="1" as="geometry">
            <mxPoint x="510" y="220" as="sourcePoint" />
            <mxPoint x="560" y="170" as="targetPoint" />
          </mxGeometry>
        </mxCell>
        <mxCell id="VvfuFxxKgRvNf8s8c5tq-13" value="" style="endArrow=none;html=1;rounded=0;exitX=0.5;exitY=0.5;exitDx=0;exitDy=0;exitPerimeter=0;entryX=0;entryY=0.5;entryDx=0;entryDy=0;" edge="1" parent="1" source="VvfuFxxKgRvNf8s8c5tq-1" target="VvfuFxxKgRvNf8s8c5tq-12">
          <mxGeometry width="50" height="50" relative="1" as="geometry">
            <mxPoint x="190" y="200" as="sourcePoint" />
            <mxPoint x="240" y="150" as="targetPoint" />
          </mxGeometry>
        </mxCell>
        <mxCell id="VvfuFxxKgRvNf8s8c5tq-15" value="" style="endArrow=none;html=1;rounded=0;exitX=0.5;exitY=0.5;exitDx=0;exitDy=0;exitPerimeter=0;entryX=0;entryY=1;entryDx=0;entryDy=0;" edge="1" parent="1" source="VvfuFxxKgRvNf8s8c5tq-3" target="VvfuFxxKgRvNf8s8c5tq-14">
          <mxGeometry width="50" height="50" relative="1" as="geometry">
            <mxPoint x="390" y="250" as="sourcePoint" />
            <mxPoint x="440" y="200" as="targetPoint" />
            <Array as="points">
              <mxPoint x="120" y="270" />
            </Array>
          </mxGeometry>
        </mxCell>
        <mxCell id="VvfuFxxKgRvNf8s8c5tq-16" value="" style="endArrow=none;html=1;rounded=0;exitX=0.5;exitY=0.5;exitDx=0;exitDy=0;exitPerimeter=0;entryX=0;entryY=0.5;entryDx=0;entryDy=0;" edge="1" parent="1" source="VvfuFxxKgRvNf8s8c5tq-1" target="VvfuFxxKgRvNf8s8c5tq-14">
          <mxGeometry width="50" height="50" relative="1" as="geometry">
            <mxPoint x="130" y="250" as="sourcePoint" />
            <mxPoint x="180" y="200" as="targetPoint" />
          </mxGeometry>
        </mxCell>
        <mxCell id="VvfuFxxKgRvNf8s8c5tq-17" value="" style="endArrow=none;html=1;rounded=0;entryX=0.5;entryY=0.5;entryDx=0;entryDy=0;entryPerimeter=0;exitX=1;exitY=0.5;exitDx=0;exitDy=0;" edge="1" parent="1" source="VvfuFxxKgRvNf8s8c5tq-14" target="VvfuFxxKgRvNf8s8c5tq-2">
          <mxGeometry width="50" height="50" relative="1" as="geometry">
            <mxPoint x="390" y="250" as="sourcePoint" />
            <mxPoint x="440" y="200" as="targetPoint" />
          </mxGeometry>
        </mxCell>
        <mxCell id="VvfuFxxKgRvNf8s8c5tq-19" value="" style="endArrow=none;html=1;rounded=0;exitX=0.5;exitY=0.5;exitDx=0;exitDy=0;exitPerimeter=0;entryX=0;entryY=0.5;entryDx=0;entryDy=0;" edge="1" parent="1" source="VvfuFxxKgRvNf8s8c5tq-1" target="VvfuFxxKgRvNf8s8c5tq-18">
          <mxGeometry width="50" height="50" relative="1" as="geometry">
            <mxPoint x="390" y="250" as="sourcePoint" />
            <mxPoint x="440" y="200" as="targetPoint" />
          </mxGeometry>
        </mxCell>
        <mxCell id="VvfuFxxKgRvNf8s8c5tq-29" value="" style="endArrow=none;html=1;rounded=0;entryX=0.5;entryY=0.5;entryDx=0;entryDy=0;entryPerimeter=0;exitX=1;exitY=0;exitDx=0;exitDy=0;" edge="1" parent="1" source="VvfuFxxKgRvNf8s8c5tq-24" target="VvfuFxxKgRvNf8s8c5tq-2">
          <mxGeometry width="50" height="50" relative="1" as="geometry">
            <mxPoint x="390" y="250" as="sourcePoint" />
            <mxPoint x="440" y="200" as="targetPoint" />
          </mxGeometry>
        </mxCell>
        <mxCell id="VvfuFxxKgRvNf8s8c5tq-30" value="" style="endArrow=none;html=1;rounded=0;exitX=0.5;exitY=0.5;exitDx=0;exitDy=0;exitPerimeter=0;entryX=1;entryY=1;entryDx=0;entryDy=0;" edge="1" parent="1" source="VvfuFxxKgRvNf8s8c5tq-4" target="VvfuFxxKgRvNf8s8c5tq-24">
          <mxGeometry width="50" height="50" relative="1" as="geometry">
            <mxPoint x="390" y="250" as="sourcePoint" />
            <mxPoint x="440" y="200" as="targetPoint" />
          </mxGeometry>
        </mxCell>
        <mxCell id="VvfuFxxKgRvNf8s8c5tq-33" value="" style="endArrow=none;html=1;rounded=0;entryX=0;entryY=0.5;entryDx=0;entryDy=0;exitX=0.5;exitY=0.5;exitDx=0;exitDy=0;exitPerimeter=0;" edge="1" parent="1" source="VvfuFxxKgRvNf8s8c5tq-1" target="VvfuFxxKgRvNf8s8c5tq-32">
          <mxGeometry width="50" height="50" relative="1" as="geometry">
            <mxPoint x="60" y="110" as="sourcePoint" />
            <mxPoint x="480" y="190" as="targetPoint" />
            <Array as="points">
              <mxPoint x="120" y="310" />
            </Array>
          </mxGeometry>
        </mxCell>
        <mxCell id="VvfuFxxKgRvNf8s8c5tq-36" value="" style="endArrow=none;html=1;rounded=0;entryX=0.5;entryY=0.5;entryDx=0;entryDy=0;entryPerimeter=0;exitX=1;exitY=0.5;exitDx=0;exitDy=0;" edge="1" parent="1" source="VvfuFxxKgRvNf8s8c5tq-35" target="VvfuFxxKgRvNf8s8c5tq-4">
          <mxGeometry width="50" height="50" relative="1" as="geometry">
            <mxPoint x="430" y="270" as="sourcePoint" />
            <mxPoint x="480" y="220" as="targetPoint" />
          </mxGeometry>
        </mxCell>
        <mxCell id="VvfuFxxKgRvNf8s8c5tq-37" value="" style="endArrow=none;html=1;rounded=0;entryX=0.5;entryY=0.5;entryDx=0;entryDy=0;entryPerimeter=0;exitX=0;exitY=0.5;exitDx=0;exitDy=0;" edge="1" parent="1" source="VvfuFxxKgRvNf8s8c5tq-34" target="VvfuFxxKgRvNf8s8c5tq-1">
          <mxGeometry width="50" height="50" relative="1" as="geometry">
            <mxPoint x="430" y="340" as="sourcePoint" />
            <mxPoint x="480" y="290" as="targetPoint" />
            <Array as="points">
              <mxPoint x="110" y="320" />
            </Array>
          </mxGeometry>
        </mxCell>
        <mxCell id="VvfuFxxKgRvNf8s8c5tq-53" value="" style="endArrow=none;html=1;rounded=0;exitX=0.5;exitY=0.5;exitDx=0;exitDy=0;exitPerimeter=0;entryX=0;entryY=0.5;entryDx=0;entryDy=0;" edge="1" parent="1" source="VvfuFxxKgRvNf8s8c5tq-3" target="VvfuFxxKgRvNf8s8c5tq-51">
          <mxGeometry width="50" height="50" relative="1" as="geometry">
            <mxPoint x="450" y="510" as="sourcePoint" />
            <mxPoint x="500" y="460" as="targetPoint" />
          </mxGeometry>
        </mxCell>
        <mxCell id="VvfuFxxKgRvNf8s8c5tq-54" value="" style="endArrow=none;html=1;rounded=0;entryX=0.5;entryY=0.5;entryDx=0;entryDy=0;entryPerimeter=0;exitX=1;exitY=0.5;exitDx=0;exitDy=0;" edge="1" parent="1" source="VvfuFxxKgRvNf8s8c5tq-49" target="VvfuFxxKgRvNf8s8c5tq-4">
          <mxGeometry width="50" height="50" relative="1" as="geometry">
            <mxPoint x="380" y="490" as="sourcePoint" />
            <mxPoint x="430" y="440" as="targetPoint" />
          </mxGeometry>
        </mxCell>
      </root>
    </mxGraphModel>
  </diagram>
</mxfile>
